G04*
G04 #@! TF.GenerationSoftware,Altium Limited,Altium Designer,21.3.2 (30)*
G04*
G04 Layer_Color=32896*
%FSTAX24Y24*%
%MOIN*%
G70*
G04*
G04 #@! TF.SameCoordinates,B3087990-D193-403A-B466-816C1580CACB*
G04*
G04*
G04 #@! TF.FilePolarity,Positive*
G04*
G01*
G75*
%ADD28C,0.0059*%
%ADD32C,0.0060*%
G36*
X052244Y03931D02*
X052242D01*
X052241Y03931D01*
X052239Y03931D01*
X052238Y039311D01*
X052236Y039311D01*
X052234Y039312D01*
X052234D01*
X052233Y039312D01*
X052232Y039312D01*
X052231Y039313D01*
X052228Y039314D01*
X052226Y039316D01*
X052223Y039317D01*
X05222Y039319D01*
X052217Y039322D01*
X052217D01*
X052217Y039322D01*
X052216Y039323D01*
X052214Y039325D01*
X052212Y039327D01*
X052209Y03933D01*
X052206Y039333D01*
X052202Y039338D01*
X052198Y039342D01*
X052198Y039342D01*
X052197Y039343D01*
X052196Y039344D01*
X052195Y039346D01*
X052194Y039347D01*
X052192Y039349D01*
X05219Y039351D01*
X052188Y039354D01*
X052184Y039358D01*
X05218Y039363D01*
X052178Y039365D01*
X052175Y039367D01*
X052173Y039369D01*
X052171Y03937D01*
X052171D01*
X052171Y03937D01*
X05217Y039371D01*
X05217Y039371D01*
X052168Y039372D01*
X052165Y039374D01*
X052162Y039375D01*
X052159Y039376D01*
X052156Y039377D01*
X052153Y039378D01*
X052152D01*
X052151Y039377D01*
X052149Y039377D01*
X052147Y039377D01*
X052145Y039376D01*
X052142Y039375D01*
X05214Y039373D01*
X052137Y039371D01*
X052137Y03937D01*
X052136Y03937D01*
X052135Y039368D01*
X052134Y039366D01*
X052133Y039364D01*
X052132Y039361D01*
X052131Y039357D01*
X052131Y039354D01*
Y039352D01*
X052131Y039352D01*
X052131Y03935D01*
X052132Y039347D01*
X052132Y039344D01*
X052134Y039341D01*
X052135Y039338D01*
X052137Y039335D01*
X052138Y039335D01*
X052139Y039334D01*
X05214Y039333D01*
X052142Y039332D01*
X052145Y039331D01*
X052148Y03933D01*
X052152Y039329D01*
X052156Y039329D01*
X052154Y039313D01*
X052154D01*
X052154Y039313D01*
X052153D01*
X052151Y039313D01*
X05215Y039314D01*
X052148Y039314D01*
X052146Y039315D01*
X052144Y039315D01*
X05214Y039317D01*
X052136Y039319D01*
X052133Y03932D01*
X052131Y039322D01*
X052129Y039323D01*
X052127Y039325D01*
X052127Y039325D01*
X052127Y039326D01*
X052127Y039326D01*
X052126Y039327D01*
X052125Y039328D01*
X052125Y039329D01*
X052124Y039331D01*
X052123Y039333D01*
X052122Y039335D01*
X052121Y039337D01*
X05212Y039339D01*
X052119Y039342D01*
X052119Y039345D01*
X052118Y039348D01*
X052118Y039351D01*
X052118Y039354D01*
Y039356D01*
X052118Y039357D01*
X052118Y039358D01*
X052119Y03936D01*
X052119Y039362D01*
X052119Y039364D01*
X052121Y039369D01*
X052122Y039374D01*
X052123Y039376D01*
X052125Y039378D01*
X052126Y039381D01*
X052128Y039383D01*
X052128Y039383D01*
X052129Y039383D01*
X052129Y039384D01*
X05213Y039384D01*
X052131Y039385D01*
X052132Y039386D01*
X052133Y039387D01*
X052135Y039388D01*
X052139Y03939D01*
X052143Y039392D01*
X052145Y039392D01*
X052148Y039393D01*
X05215Y039393D01*
X052153Y039393D01*
X052154D01*
X052156Y039393D01*
X052158Y039393D01*
X05216Y039393D01*
X052162Y039392D01*
X052165Y039391D01*
X052168Y03939D01*
X052168Y03939D01*
X052169Y03939D01*
X052171Y039389D01*
X052173Y039388D01*
X052175Y039386D01*
X052178Y039384D01*
X05218Y039382D01*
X052183Y03938D01*
X052184Y039379D01*
X052185Y039378D01*
X052186Y039378D01*
X052187Y039377D01*
X052188Y039376D01*
X052189Y039374D01*
X052191Y039373D01*
X052192Y039371D01*
X052194Y039369D01*
X052196Y039367D01*
X052198Y039364D01*
X0522Y039362D01*
X052203Y039359D01*
X052205Y039356D01*
X052206Y039356D01*
X052206Y039356D01*
X052206Y039355D01*
X052207Y039354D01*
X052208Y039353D01*
X052209Y039352D01*
X052212Y039349D01*
X052214Y039346D01*
X052217Y039343D01*
X05222Y03934D01*
X05222Y039339D01*
X052221Y039338D01*
X052222Y039338D01*
X052222Y039337D01*
X052223Y039337D01*
X052224Y039336D01*
X052225Y039335D01*
X052226Y039334D01*
X05223Y039331D01*
Y039394D01*
X052244D01*
Y03931D01*
D02*
G37*
G36*
X052206Y039298D02*
X052207Y039297D01*
X052208Y039297D01*
X05221Y039296D01*
X052212Y039296D01*
X052214Y039295D01*
X052216Y039294D01*
X052221Y039291D01*
X052226Y039288D01*
X052229Y039286D01*
X052232Y039284D01*
X052234Y039282D01*
X052236Y039279D01*
X052236Y039279D01*
X052236Y039279D01*
X052237Y039278D01*
X052238Y039277D01*
X052238Y039275D01*
X052239Y039274D01*
X05224Y039272D01*
X052241Y03927D01*
X052242Y039267D01*
X052243Y039265D01*
X052244Y039262D01*
X052245Y039259D01*
X052246Y039256D01*
X052246Y039253D01*
X052246Y039249D01*
X052247Y039246D01*
Y039244D01*
X052246Y039242D01*
Y039241D01*
X052246Y039239D01*
X052246Y039236D01*
X052246Y039234D01*
X052245Y039229D01*
X052243Y039223D01*
X052241Y039218D01*
X05224Y039215D01*
X052238Y039213D01*
X052238Y039212D01*
X052238Y039212D01*
X052238Y039211D01*
X052237Y039211D01*
X052236Y03921D01*
X052235Y039208D01*
X052234Y039207D01*
X052232Y039205D01*
X052231Y039204D01*
X052229Y039202D01*
X052225Y039199D01*
X05222Y039196D01*
X052214Y039193D01*
X052214D01*
X052214Y039193D01*
X052213Y039193D01*
X052212Y039192D01*
X05221Y039192D01*
X052208Y039191D01*
X052206Y03919D01*
X052204Y03919D01*
X052202Y039189D01*
X052199Y039189D01*
X052194Y039188D01*
X052187Y039187D01*
X052181Y039187D01*
X052179D01*
X052177Y039187D01*
X052175D01*
X052174Y039187D01*
X052171Y039187D01*
X052169Y039188D01*
X052164Y039188D01*
X052158Y03919D01*
X052152Y039192D01*
X052146Y039194D01*
X052146Y039194D01*
X052146Y039194D01*
X052145Y039195D01*
X052144Y039196D01*
X052143Y039196D01*
X052141Y039197D01*
X052138Y0392D01*
X052134Y039203D01*
X052131Y039206D01*
X052127Y03921D01*
X052124Y039215D01*
X052124Y039216D01*
X052124Y039216D01*
X052123Y039217D01*
X052123Y039218D01*
X052122Y039219D01*
X052122Y039221D01*
X052121Y039222D01*
X05212Y039224D01*
X052119Y039227D01*
X052119Y039229D01*
X052118Y039234D01*
X052117Y03924D01*
X052116Y039246D01*
Y039248D01*
X052117Y039249D01*
X052117Y039251D01*
X052117Y039253D01*
X052117Y039255D01*
X052118Y039257D01*
X052119Y039262D01*
X05212Y039267D01*
X052121Y03927D01*
X052123Y039273D01*
X052124Y039275D01*
X052126Y039278D01*
X052126Y039278D01*
X052126Y039278D01*
X052127Y039279D01*
X052128Y03928D01*
X052129Y039281D01*
X05213Y039282D01*
X052131Y039283D01*
X052133Y039285D01*
X052135Y039286D01*
X052137Y039288D01*
X052139Y039289D01*
X052141Y039291D01*
X052144Y039292D01*
X052147Y039294D01*
X05215Y039295D01*
X052153Y039296D01*
X052157Y039279D01*
X052157D01*
X052156Y039279D01*
X052156Y039279D01*
X052155Y039279D01*
X052154Y039278D01*
X052152Y039278D01*
X052149Y039276D01*
X052146Y039274D01*
X052143Y039272D01*
X05214Y039269D01*
X052137Y039267D01*
X052137Y039266D01*
X052136Y039265D01*
X052135Y039263D01*
X052134Y039261D01*
X052133Y039258D01*
X052131Y039254D01*
X052131Y03925D01*
X052131Y039246D01*
Y039244D01*
X052131Y039243D01*
Y039242D01*
X052131Y03924D01*
X052131Y039237D01*
X052132Y039233D01*
X052133Y039229D01*
X052135Y039225D01*
X052138Y039221D01*
Y039221D01*
X052138Y039221D01*
X052139Y03922D01*
X05214Y039218D01*
X052143Y039216D01*
X052145Y039214D01*
X052148Y039211D01*
X052152Y039209D01*
X052156Y039208D01*
X052157D01*
X052157Y039207D01*
X052157Y039207D01*
X052158Y039207D01*
X052159Y039207D01*
X052161Y039206D01*
X052164Y039206D01*
X052168Y039205D01*
X052172Y039204D01*
X052176Y039204D01*
X052181Y039204D01*
X052183D01*
X052185Y039204D01*
X052186D01*
X052188Y039204D01*
X05219Y039204D01*
X052194Y039205D01*
X052199Y039206D01*
X052204Y039207D01*
X052209Y039208D01*
X052209D01*
X052209Y039208D01*
X05221Y039209D01*
X052211Y039209D01*
X052213Y03921D01*
X052215Y039212D01*
X052218Y039214D01*
X052221Y039216D01*
X052224Y039219D01*
X052227Y039223D01*
Y039223D01*
X052227Y039223D01*
X052227Y039224D01*
X052228Y039225D01*
X052228Y039226D01*
X052228Y039227D01*
X05223Y039229D01*
X052231Y039232D01*
X052232Y039236D01*
X052232Y03924D01*
X052232Y039244D01*
Y039246D01*
X052232Y039247D01*
Y039248D01*
X052232Y039249D01*
X052231Y039253D01*
X05223Y039256D01*
X052229Y03926D01*
X052227Y039264D01*
X052226Y039266D01*
X052224Y039268D01*
X052224Y039268D01*
X052224Y039268D01*
X052224Y039269D01*
X052223Y03927D01*
X052222Y03927D01*
X052221Y039271D01*
X05222Y039272D01*
X052218Y039273D01*
X052217Y039274D01*
X052215Y039276D01*
X052213Y039277D01*
X052211Y039278D01*
X052209Y039279D01*
X052206Y03928D01*
X052203Y039281D01*
X0522Y039281D01*
X052205Y039298D01*
X052205D01*
X052206Y039298D01*
D02*
G37*
G36*
X053169Y038402D02*
X053199D01*
Y038387D01*
X053169D01*
Y038332D01*
X053155D01*
X053073Y03839D01*
Y038402D01*
X053155D01*
Y03842D01*
X053169D01*
Y038402D01*
D02*
G37*
G36*
X05316Y038323D02*
X053161Y038323D01*
X053163Y038322D01*
X053164Y038322D01*
X053166Y038321D01*
X053169Y03832D01*
X053171Y038319D01*
X053176Y038316D01*
X053181Y038313D01*
X053184Y038311D01*
X053186Y038309D01*
X053188Y038307D01*
X053191Y038304D01*
X053191Y038304D01*
X053191Y038304D01*
X053192Y038303D01*
X053192Y038302D01*
X053193Y0383D01*
X053194Y038299D01*
X053195Y038297D01*
X053196Y038295D01*
X053197Y038293D01*
X053198Y03829D01*
X053199Y038287D01*
X0532Y038284D01*
X0532Y038281D01*
X053201Y038278D01*
X053201Y038275D01*
X053201Y038271D01*
Y038269D01*
X053201Y038268D01*
Y038266D01*
X053201Y038264D01*
X053201Y038262D01*
X0532Y038259D01*
X053199Y038254D01*
X053198Y038248D01*
X053196Y038243D01*
X053195Y03824D01*
X053193Y038238D01*
X053193Y038238D01*
X053193Y038237D01*
X053192Y038237D01*
X053192Y038236D01*
X053191Y038235D01*
X05319Y038233D01*
X053188Y038232D01*
X053187Y038231D01*
X053185Y038229D01*
X053184Y038228D01*
X05318Y038224D01*
X053175Y038221D01*
X053169Y038218D01*
X053169D01*
X053168Y038218D01*
X053168Y038218D01*
X053166Y038217D01*
X053165Y038217D01*
X053163Y038216D01*
X053161Y038216D01*
X053159Y038215D01*
X053157Y038215D01*
X053154Y038214D01*
X053148Y038213D01*
X053142Y038212D01*
X053135Y038212D01*
X053133D01*
X053132Y038212D01*
X05313D01*
X053128Y038212D01*
X053126Y038212D01*
X053124Y038213D01*
X053118Y038214D01*
X053113Y038215D01*
X053107Y038217D01*
X053101Y038219D01*
X053101Y038219D01*
X0531Y03822D01*
X0531Y03822D01*
X053099Y038221D01*
X053097Y038221D01*
X053096Y038222D01*
X053093Y038225D01*
X053089Y038228D01*
X053085Y038231D01*
X053082Y038236D01*
X053079Y038241D01*
X053079Y038241D01*
X053078Y038241D01*
X053078Y038242D01*
X053077Y038243D01*
X053077Y038244D01*
X053076Y038246D01*
X053076Y038248D01*
X053075Y03825D01*
X053074Y038252D01*
X053073Y038254D01*
X053072Y038259D01*
X053071Y038265D01*
X053071Y038271D01*
Y038273D01*
X053071Y038274D01*
X053071Y038276D01*
X053072Y038278D01*
X053072Y03828D01*
X053072Y038282D01*
X053073Y038287D01*
X053075Y038293D01*
X053076Y038295D01*
X053077Y038298D01*
X053079Y0383D01*
X053081Y038303D01*
X053081Y038303D01*
X053081Y038304D01*
X053082Y038304D01*
X053083Y038305D01*
X053083Y038306D01*
X053085Y038307D01*
X053086Y038309D01*
X053088Y03831D01*
X053089Y038312D01*
X053092Y038313D01*
X053094Y038315D01*
X053096Y038316D01*
X053099Y038317D01*
X053102Y038319D01*
X053105Y03832D01*
X053108Y038321D01*
X053112Y038305D01*
X053111D01*
X053111Y038304D01*
X05311Y038304D01*
X053109Y038304D01*
X053108Y038303D01*
X053107Y038303D01*
X053104Y038301D01*
X053101Y0383D01*
X053097Y038297D01*
X053094Y038295D01*
X053092Y038292D01*
X053091Y038291D01*
X053091Y03829D01*
X05309Y038288D01*
X053088Y038286D01*
X053087Y038283D01*
X053086Y03828D01*
X053085Y038275D01*
X053085Y038271D01*
Y038269D01*
X053085Y038268D01*
Y038267D01*
X053086Y038266D01*
X053086Y038262D01*
X053087Y038258D01*
X053088Y038254D01*
X05309Y03825D01*
X053092Y038246D01*
Y038246D01*
X053093Y038246D01*
X053094Y038245D01*
X053095Y038243D01*
X053097Y038241D01*
X0531Y038239D01*
X053103Y038237D01*
X053107Y038235D01*
X053111Y038233D01*
X053111D01*
X053112Y038233D01*
X053112Y038232D01*
X053113Y038232D01*
X053114Y038232D01*
X053115Y038231D01*
X053119Y038231D01*
X053122Y03823D01*
X053126Y038229D01*
X053131Y038229D01*
X053135Y038229D01*
X053138D01*
X053139Y038229D01*
X053141D01*
X053143Y038229D01*
X053145Y038229D01*
X053149Y03823D01*
X053154Y038231D01*
X053159Y038232D01*
X053163Y038233D01*
X053164D01*
X053164Y038234D01*
X053164Y038234D01*
X053165Y038234D01*
X053168Y038235D01*
X05317Y038237D01*
X053173Y038239D01*
X053176Y038242D01*
X053179Y038245D01*
X053181Y038248D01*
Y038248D01*
X053182Y038249D01*
X053182Y038249D01*
X053182Y03825D01*
X053183Y038251D01*
X053183Y038252D01*
X053184Y038254D01*
X053185Y038258D01*
X053186Y038261D01*
X053187Y038265D01*
X053187Y03827D01*
Y038271D01*
X053187Y038272D01*
Y038273D01*
X053187Y038274D01*
X053186Y038278D01*
X053185Y038282D01*
X053184Y038285D01*
X053182Y038289D01*
X053181Y038291D01*
X053179Y038293D01*
X053179Y038293D01*
X053179Y038294D01*
X053178Y038294D01*
X053178Y038295D01*
X053177Y038296D01*
X053176Y038296D01*
X053175Y038298D01*
X053173Y038298D01*
X053172Y0383D01*
X05317Y038301D01*
X053168Y038302D01*
X053166Y038303D01*
X053163Y038304D01*
X053161Y038305D01*
X053158Y038306D01*
X053155Y038306D01*
X053159Y038323D01*
X05316D01*
X05316Y038323D01*
D02*
G37*
G36*
X048986Y036893D02*
X048887D01*
X048888Y036893D01*
X048888Y036892D01*
X048889Y036891D01*
X048891Y03689D01*
X048892Y036888D01*
X048894Y036885D01*
X048896Y036882D01*
X048898Y036879D01*
Y036879D01*
X048898Y036878D01*
X048899Y036877D01*
X0489Y036875D01*
X048901Y036873D01*
X048902Y036871D01*
X048904Y036868D01*
X048905Y036865D01*
X048906Y036863D01*
X048891D01*
Y036863D01*
X048891Y036863D01*
X04889Y036864D01*
X04889Y036865D01*
X048889Y036866D01*
X048889Y036867D01*
X048887Y03687D01*
X048885Y036874D01*
X048882Y036877D01*
X048879Y036881D01*
X048876Y036885D01*
X048876Y036885D01*
X048876Y036885D01*
X048875Y036886D01*
X048875Y036887D01*
X048873Y036888D01*
X048871Y036891D01*
X048868Y036893D01*
X048865Y036895D01*
X048862Y036897D01*
X048859Y036899D01*
Y036909D01*
X048986D01*
Y036893D01*
D02*
G37*
G36*
X048937Y036829D02*
X048939D01*
X048941Y036829D01*
X048944Y036829D01*
X048948Y036828D01*
X048954Y036827D01*
X048958Y036826D01*
X048961Y036826D01*
X048963Y036825D01*
X048963D01*
X048964Y036825D01*
X048964Y036824D01*
X048965Y036824D01*
X048967Y036823D01*
X048969Y036821D01*
X048972Y036819D01*
X048975Y036817D01*
X048978Y036813D01*
X048981Y036809D01*
Y036809D01*
X048981Y036809D01*
X048982Y036808D01*
X048982Y036807D01*
X048983Y036806D01*
X048983Y036805D01*
X048984Y036803D01*
X048985Y036801D01*
X048985Y036799D01*
X048986Y036797D01*
X048986Y036795D01*
X048987Y036792D01*
X048987Y036789D01*
X048988Y036786D01*
X048988Y03678D01*
Y036778D01*
X048988Y036777D01*
Y036776D01*
X048988Y036774D01*
X048987Y036772D01*
X048987Y03677D01*
X048987Y036765D01*
X048985Y03676D01*
X048984Y036756D01*
X048982Y036751D01*
Y036751D01*
X048982Y03675D01*
X048981Y03675D01*
X048981Y036749D01*
X048979Y036747D01*
X048977Y036745D01*
X048975Y036742D01*
X048972Y03674D01*
X048968Y036737D01*
X048964Y036735D01*
X048964D01*
X048964Y036735D01*
X048963Y036735D01*
X048962Y036734D01*
X048961Y036734D01*
X04896Y036734D01*
X048958Y036733D01*
X048956Y036733D01*
X048954Y036732D01*
X048951Y036732D01*
X048949Y036731D01*
X048946Y036731D01*
X048943Y036731D01*
X04894Y03673D01*
X048936Y03673D01*
X04886D01*
Y036747D01*
X048935D01*
X048937Y036747D01*
X048938D01*
X048942Y036747D01*
X048946Y036748D01*
X04895Y036748D01*
X048954Y036749D01*
X048955Y036749D01*
X048957Y03675D01*
X048957Y03675D01*
X048958Y03675D01*
X048959Y036751D01*
X048961Y036752D01*
X048963Y036754D01*
X048965Y036756D01*
X048967Y036758D01*
X048969Y03676D01*
X048969Y036761D01*
X048969Y036762D01*
X04897Y036763D01*
X048971Y036765D01*
X048972Y036768D01*
X048972Y036771D01*
X048973Y036775D01*
X048973Y036778D01*
Y03678D01*
X048973Y036781D01*
Y036783D01*
X048973Y036785D01*
X048972Y036789D01*
X048971Y036793D01*
X048969Y036797D01*
X048967Y036801D01*
X048966Y036803D01*
X048965Y036805D01*
X048964Y036805D01*
X048964Y036805D01*
X048964Y036805D01*
X048963Y036806D01*
X048962Y036807D01*
X048961Y036807D01*
X048959Y036808D01*
X048958Y036809D01*
X048956Y036809D01*
X048953Y03681D01*
X04895Y036811D01*
X048948Y036811D01*
X048944Y036812D01*
X048941Y036812D01*
X048937Y036813D01*
X04886D01*
Y036829D01*
X048936D01*
X048937Y036829D01*
D02*
G37*
G36*
X052244Y030255D02*
X052242D01*
X052241Y030255D01*
X052239Y030255D01*
X052238Y030256D01*
X052236Y030256D01*
X052234Y030257D01*
X052234D01*
X052233Y030257D01*
X052232Y030257D01*
X052231Y030258D01*
X052228Y030259D01*
X052226Y030261D01*
X052223Y030262D01*
X05222Y030264D01*
X052217Y030267D01*
X052217D01*
X052217Y030267D01*
X052216Y030268D01*
X052214Y03027D01*
X052212Y030272D01*
X052209Y030275D01*
X052206Y030278D01*
X052202Y030283D01*
X052198Y030287D01*
X052198Y030287D01*
X052197Y030288D01*
X052196Y030289D01*
X052195Y03029D01*
X052194Y030292D01*
X052192Y030294D01*
X05219Y030296D01*
X052188Y030298D01*
X052184Y030303D01*
X05218Y030307D01*
X052178Y03031D01*
X052175Y030312D01*
X052173Y030313D01*
X052171Y030315D01*
X052171D01*
X052171Y030315D01*
X05217Y030316D01*
X05217Y030316D01*
X052168Y030317D01*
X052165Y030319D01*
X052162Y03032D01*
X052159Y030321D01*
X052156Y030322D01*
X052153Y030322D01*
X052152D01*
X052151Y030322D01*
X052149Y030322D01*
X052147Y030322D01*
X052145Y030321D01*
X052142Y03032D01*
X05214Y030318D01*
X052137Y030316D01*
X052137Y030315D01*
X052136Y030314D01*
X052135Y030313D01*
X052134Y030311D01*
X052133Y030309D01*
X052132Y030306D01*
X052131Y030302D01*
X052131Y030298D01*
Y030297D01*
X052131Y030297D01*
X052131Y030294D01*
X052132Y030292D01*
X052132Y030289D01*
X052134Y030286D01*
X052135Y030283D01*
X052137Y03028D01*
X052138Y03028D01*
X052139Y030279D01*
X05214Y030278D01*
X052142Y030277D01*
X052145Y030276D01*
X052148Y030275D01*
X052152Y030274D01*
X052156Y030274D01*
X052154Y030258D01*
X052154D01*
X052154Y030258D01*
X052153D01*
X052151Y030258D01*
X05215Y030259D01*
X052148Y030259D01*
X052146Y030259D01*
X052144Y03026D01*
X05214Y030261D01*
X052136Y030264D01*
X052133Y030265D01*
X052131Y030267D01*
X052129Y030268D01*
X052127Y03027D01*
X052127Y03027D01*
X052127Y030271D01*
X052127Y030271D01*
X052126Y030272D01*
X052125Y030273D01*
X052125Y030274D01*
X052124Y030276D01*
X052123Y030278D01*
X052122Y03028D01*
X052121Y030282D01*
X05212Y030284D01*
X052119Y030287D01*
X052119Y030289D01*
X052118Y030292D01*
X052118Y030295D01*
X052118Y030299D01*
Y030301D01*
X052118Y030302D01*
X052118Y030303D01*
X052119Y030305D01*
X052119Y030307D01*
X052119Y030309D01*
X052121Y030314D01*
X052122Y030319D01*
X052123Y030321D01*
X052125Y030323D01*
X052126Y030326D01*
X052128Y030328D01*
X052128Y030328D01*
X052129Y030328D01*
X052129Y030328D01*
X05213Y030329D01*
X052131Y03033D01*
X052132Y030331D01*
X052133Y030332D01*
X052135Y030333D01*
X052139Y030335D01*
X052143Y030337D01*
X052145Y030337D01*
X052148Y030338D01*
X05215Y030338D01*
X052153Y030338D01*
X052154D01*
X052156Y030338D01*
X052158Y030338D01*
X05216Y030338D01*
X052162Y030337D01*
X052165Y030336D01*
X052168Y030335D01*
X052168Y030335D01*
X052169Y030334D01*
X052171Y030334D01*
X052173Y030333D01*
X052175Y030331D01*
X052178Y030329D01*
X05218Y030327D01*
X052183Y030325D01*
X052184Y030324D01*
X052185Y030323D01*
X052186Y030322D01*
X052187Y030322D01*
X052188Y03032D01*
X052189Y030319D01*
X052191Y030317D01*
X052192Y030316D01*
X052194Y030314D01*
X052196Y030312D01*
X052198Y030309D01*
X0522Y030307D01*
X052203Y030304D01*
X052205Y030301D01*
X052206Y030301D01*
X052206Y0303D01*
X052206Y0303D01*
X052207Y030299D01*
X052208Y030298D01*
X052209Y030296D01*
X052212Y030293D01*
X052214Y03029D01*
X052217Y030287D01*
X05222Y030285D01*
X05222Y030284D01*
X052221Y030283D01*
X052222Y030283D01*
X052222Y030282D01*
X052223Y030281D01*
X052224Y030281D01*
X052225Y03028D01*
X052226Y030279D01*
X05223Y030276D01*
Y030338D01*
X052244D01*
Y030255D01*
D02*
G37*
G36*
X052206Y030243D02*
X052207Y030242D01*
X052208Y030242D01*
X05221Y030241D01*
X052212Y030241D01*
X052214Y03024D01*
X052216Y030239D01*
X052221Y030236D01*
X052226Y030233D01*
X052229Y030231D01*
X052232Y030229D01*
X052234Y030227D01*
X052236Y030224D01*
X052236Y030224D01*
X052236Y030223D01*
X052237Y030222D01*
X052238Y030222D01*
X052238Y03022D01*
X052239Y030219D01*
X05224Y030217D01*
X052241Y030215D01*
X052242Y030212D01*
X052243Y03021D01*
X052244Y030207D01*
X052245Y030204D01*
X052246Y030201D01*
X052246Y030198D01*
X052246Y030194D01*
X052247Y030191D01*
Y030189D01*
X052246Y030187D01*
Y030186D01*
X052246Y030184D01*
X052246Y030181D01*
X052246Y030179D01*
X052245Y030174D01*
X052243Y030168D01*
X052241Y030163D01*
X05224Y03016D01*
X052238Y030158D01*
X052238Y030157D01*
X052238Y030157D01*
X052238Y030156D01*
X052237Y030156D01*
X052236Y030154D01*
X052235Y030153D01*
X052234Y030152D01*
X052232Y03015D01*
X052231Y030149D01*
X052229Y030147D01*
X052225Y030144D01*
X05222Y030141D01*
X052214Y030138D01*
X052214D01*
X052214Y030138D01*
X052213Y030138D01*
X052212Y030137D01*
X05221Y030137D01*
X052208Y030136D01*
X052206Y030135D01*
X052204Y030135D01*
X052202Y030134D01*
X052199Y030134D01*
X052194Y030133D01*
X052187Y030132D01*
X052181Y030131D01*
X052179D01*
X052177Y030132D01*
X052175D01*
X052174Y030132D01*
X052171Y030132D01*
X052169Y030132D01*
X052164Y030133D01*
X052158Y030135D01*
X052152Y030136D01*
X052146Y030139D01*
X052146Y030139D01*
X052146Y030139D01*
X052145Y03014D01*
X052144Y03014D01*
X052143Y030141D01*
X052141Y030142D01*
X052138Y030144D01*
X052134Y030148D01*
X052131Y030151D01*
X052127Y030155D01*
X052124Y03016D01*
X052124Y03016D01*
X052124Y030161D01*
X052123Y030162D01*
X052123Y030163D01*
X052122Y030164D01*
X052122Y030166D01*
X052121Y030167D01*
X05212Y030169D01*
X052119Y030172D01*
X052119Y030174D01*
X052118Y030179D01*
X052117Y030185D01*
X052116Y030191D01*
Y030193D01*
X052117Y030194D01*
X052117Y030196D01*
X052117Y030198D01*
X052117Y0302D01*
X052118Y030202D01*
X052119Y030207D01*
X05212Y030212D01*
X052121Y030215D01*
X052123Y030218D01*
X052124Y03022D01*
X052126Y030223D01*
X052126Y030223D01*
X052126Y030223D01*
X052127Y030224D01*
X052128Y030225D01*
X052129Y030226D01*
X05213Y030227D01*
X052131Y030228D01*
X052133Y03023D01*
X052135Y030231D01*
X052137Y030233D01*
X052139Y030234D01*
X052141Y030236D01*
X052144Y030237D01*
X052147Y030239D01*
X05215Y03024D01*
X052153Y030241D01*
X052157Y030224D01*
X052157D01*
X052156Y030224D01*
X052156Y030224D01*
X052155Y030223D01*
X052154Y030223D01*
X052152Y030222D01*
X052149Y030221D01*
X052146Y030219D01*
X052143Y030217D01*
X05214Y030214D01*
X052137Y030211D01*
X052137Y030211D01*
X052136Y03021D01*
X052135Y030208D01*
X052134Y030206D01*
X052133Y030203D01*
X052131Y030199D01*
X052131Y030195D01*
X052131Y03019D01*
Y030189D01*
X052131Y030188D01*
Y030187D01*
X052131Y030185D01*
X052131Y030182D01*
X052132Y030178D01*
X052133Y030174D01*
X052135Y03017D01*
X052138Y030166D01*
Y030166D01*
X052138Y030166D01*
X052139Y030164D01*
X05214Y030163D01*
X052143Y030161D01*
X052145Y030158D01*
X052148Y030156D01*
X052152Y030154D01*
X052156Y030152D01*
X052157D01*
X052157Y030152D01*
X052157Y030152D01*
X052158Y030152D01*
X052159Y030152D01*
X052161Y030151D01*
X052164Y030151D01*
X052168Y03015D01*
X052172Y030149D01*
X052176Y030149D01*
X052181Y030149D01*
X052183D01*
X052185Y030149D01*
X052186D01*
X052188Y030149D01*
X05219Y030149D01*
X052194Y03015D01*
X052199Y030151D01*
X052204Y030152D01*
X052209Y030153D01*
X052209D01*
X052209Y030153D01*
X05221Y030154D01*
X052211Y030154D01*
X052213Y030155D01*
X052215Y030157D01*
X052218Y030159D01*
X052221Y030161D01*
X052224Y030164D01*
X052227Y030168D01*
Y030168D01*
X052227Y030168D01*
X052227Y030169D01*
X052228Y03017D01*
X052228Y03017D01*
X052228Y030172D01*
X05223Y030174D01*
X052231Y030177D01*
X052232Y030181D01*
X052232Y030185D01*
X052232Y030189D01*
Y03019D01*
X052232Y030192D01*
Y030193D01*
X052232Y030194D01*
X052231Y030197D01*
X05223Y030201D01*
X052229Y030205D01*
X052227Y030209D01*
X052226Y030211D01*
X052224Y030213D01*
X052224Y030213D01*
X052224Y030213D01*
X052224Y030214D01*
X052223Y030214D01*
X052222Y030215D01*
X052221Y030216D01*
X05222Y030217D01*
X052218Y030218D01*
X052217Y030219D01*
X052215Y03022D01*
X052213Y030222D01*
X052211Y030223D01*
X052209Y030224D01*
X052206Y030224D01*
X052203Y030225D01*
X0522Y030226D01*
X052205Y030243D01*
X052205D01*
X052206Y030243D01*
D02*
G37*
G36*
X053169Y029347D02*
X053199D01*
Y029332D01*
X053169D01*
Y029277D01*
X053155D01*
X053073Y029335D01*
Y029347D01*
X053155D01*
Y029364D01*
X053169D01*
Y029347D01*
D02*
G37*
G36*
X05316Y029268D02*
X053161Y029268D01*
X053163Y029267D01*
X053164Y029266D01*
X053166Y029266D01*
X053169Y029265D01*
X053171Y029264D01*
X053176Y029261D01*
X053181Y029258D01*
X053184Y029256D01*
X053186Y029254D01*
X053188Y029252D01*
X053191Y029249D01*
X053191Y029249D01*
X053191Y029249D01*
X053192Y029248D01*
X053192Y029247D01*
X053193Y029245D01*
X053194Y029244D01*
X053195Y029242D01*
X053196Y02924D01*
X053197Y029238D01*
X053198Y029235D01*
X053199Y029232D01*
X0532Y029229D01*
X0532Y029226D01*
X053201Y029223D01*
X053201Y02922D01*
X053201Y029216D01*
Y029214D01*
X053201Y029212D01*
Y029211D01*
X053201Y029209D01*
X053201Y029207D01*
X0532Y029204D01*
X053199Y029199D01*
X053198Y029193D01*
X053196Y029188D01*
X053195Y029185D01*
X053193Y029183D01*
X053193Y029183D01*
X053193Y029182D01*
X053192Y029181D01*
X053192Y029181D01*
X053191Y02918D01*
X05319Y029178D01*
X053188Y029177D01*
X053187Y029175D01*
X053185Y029174D01*
X053184Y029172D01*
X05318Y029169D01*
X053175Y029166D01*
X053169Y029163D01*
X053169D01*
X053168Y029163D01*
X053168Y029163D01*
X053166Y029162D01*
X053165Y029162D01*
X053163Y029161D01*
X053161Y029161D01*
X053159Y02916D01*
X053157Y029159D01*
X053154Y029159D01*
X053148Y029158D01*
X053142Y029157D01*
X053135Y029157D01*
X053133D01*
X053132Y029157D01*
X05313D01*
X053128Y029157D01*
X053126Y029157D01*
X053124Y029158D01*
X053118Y029159D01*
X053113Y02916D01*
X053107Y029162D01*
X053101Y029164D01*
X053101Y029164D01*
X0531Y029165D01*
X0531Y029165D01*
X053099Y029166D01*
X053097Y029166D01*
X053096Y029167D01*
X053093Y02917D01*
X053089Y029173D01*
X053085Y029176D01*
X053082Y029181D01*
X053079Y029185D01*
X053079Y029186D01*
X053078Y029186D01*
X053078Y029187D01*
X053077Y029188D01*
X053077Y029189D01*
X053076Y029191D01*
X053076Y029193D01*
X053075Y029195D01*
X053074Y029197D01*
X053073Y029199D01*
X053072Y029204D01*
X053071Y02921D01*
X053071Y029216D01*
Y029218D01*
X053071Y029219D01*
X053071Y029221D01*
X053072Y029223D01*
X053072Y029225D01*
X053072Y029227D01*
X053073Y029232D01*
X053075Y029238D01*
X053076Y02924D01*
X053077Y029243D01*
X053079Y029245D01*
X053081Y029248D01*
X053081Y029248D01*
X053081Y029248D01*
X053082Y029249D01*
X053083Y02925D01*
X053083Y029251D01*
X053085Y029252D01*
X053086Y029254D01*
X053088Y029255D01*
X053089Y029256D01*
X053092Y029258D01*
X053094Y02926D01*
X053096Y029261D01*
X053099Y029262D01*
X053102Y029264D01*
X053105Y029265D01*
X053108Y029266D01*
X053112Y02925D01*
X053111D01*
X053111Y029249D01*
X05311Y029249D01*
X053109Y029249D01*
X053108Y029248D01*
X053107Y029248D01*
X053104Y029246D01*
X053101Y029244D01*
X053097Y029242D01*
X053094Y02924D01*
X053092Y029237D01*
X053091Y029236D01*
X053091Y029235D01*
X05309Y029233D01*
X053088Y029231D01*
X053087Y029228D01*
X053086Y029224D01*
X053085Y02922D01*
X053085Y029216D01*
Y029214D01*
X053085Y029213D01*
Y029212D01*
X053086Y029211D01*
X053086Y029207D01*
X053087Y029203D01*
X053088Y029199D01*
X05309Y029195D01*
X053092Y029191D01*
Y029191D01*
X053093Y029191D01*
X053094Y02919D01*
X053095Y029188D01*
X053097Y029186D01*
X0531Y029184D01*
X053103Y029181D01*
X053107Y029179D01*
X053111Y029178D01*
X053111D01*
X053112Y029177D01*
X053112Y029177D01*
X053113Y029177D01*
X053114Y029177D01*
X053115Y029176D01*
X053119Y029176D01*
X053122Y029175D01*
X053126Y029174D01*
X053131Y029174D01*
X053135Y029174D01*
X053138D01*
X053139Y029174D01*
X053141D01*
X053143Y029174D01*
X053145Y029174D01*
X053149Y029175D01*
X053154Y029176D01*
X053159Y029177D01*
X053163Y029178D01*
X053164D01*
X053164Y029179D01*
X053164Y029179D01*
X053165Y029179D01*
X053168Y02918D01*
X05317Y029182D01*
X053173Y029184D01*
X053176Y029187D01*
X053179Y029189D01*
X053181Y029193D01*
Y029193D01*
X053182Y029193D01*
X053182Y029194D01*
X053182Y029195D01*
X053183Y029196D01*
X053183Y029197D01*
X053184Y029199D01*
X053185Y029203D01*
X053186Y029206D01*
X053187Y02921D01*
X053187Y029214D01*
Y029216D01*
X053187Y029217D01*
Y029218D01*
X053187Y029219D01*
X053186Y029223D01*
X053185Y029226D01*
X053184Y02923D01*
X053182Y029234D01*
X053181Y029236D01*
X053179Y029238D01*
X053179Y029238D01*
X053179Y029238D01*
X053178Y029239D01*
X053178Y02924D01*
X053177Y02924D01*
X053176Y029241D01*
X053175Y029242D01*
X053173Y029243D01*
X053172Y029244D01*
X05317Y029246D01*
X053168Y029247D01*
X053166Y029248D01*
X053163Y029249D01*
X053161Y02925D01*
X053158Y029251D01*
X053155Y029251D01*
X053159Y029268D01*
X05316D01*
X05316Y029268D01*
D02*
G37*
G36*
X048986Y027838D02*
X048887D01*
X048888Y027838D01*
X048888Y027837D01*
X048889Y027836D01*
X048891Y027834D01*
X048892Y027832D01*
X048894Y02783D01*
X048896Y027827D01*
X048898Y027824D01*
Y027823D01*
X048898Y027823D01*
X048899Y027822D01*
X0489Y02782D01*
X048901Y027818D01*
X048902Y027816D01*
X048904Y027813D01*
X048905Y02781D01*
X048906Y027807D01*
X048891D01*
Y027808D01*
X048891Y027808D01*
X04889Y027809D01*
X04889Y02781D01*
X048889Y027811D01*
X048889Y027812D01*
X048887Y027815D01*
X048885Y027819D01*
X048882Y027822D01*
X048879Y027826D01*
X048876Y02783D01*
X048876Y02783D01*
X048876Y02783D01*
X048875Y027831D01*
X048875Y027832D01*
X048873Y027833D01*
X048871Y027835D01*
X048868Y027838D01*
X048865Y02784D01*
X048862Y027842D01*
X048859Y027844D01*
Y027854D01*
X048986D01*
Y027838D01*
D02*
G37*
G36*
X048937Y027774D02*
X048939D01*
X048941Y027774D01*
X048944Y027774D01*
X048948Y027773D01*
X048954Y027772D01*
X048958Y027771D01*
X048961Y027771D01*
X048963Y02777D01*
X048963D01*
X048964Y02777D01*
X048964Y027769D01*
X048965Y027769D01*
X048967Y027768D01*
X048969Y027766D01*
X048972Y027764D01*
X048975Y027761D01*
X048978Y027758D01*
X048981Y027754D01*
Y027754D01*
X048981Y027754D01*
X048982Y027753D01*
X048982Y027752D01*
X048983Y027751D01*
X048983Y02775D01*
X048984Y027748D01*
X048985Y027746D01*
X048985Y027744D01*
X048986Y027742D01*
X048986Y02774D01*
X048987Y027737D01*
X048987Y027734D01*
X048988Y027731D01*
X048988Y027725D01*
Y027723D01*
X048988Y027722D01*
Y02772D01*
X048988Y027719D01*
X048987Y027717D01*
X048987Y027715D01*
X048987Y02771D01*
X048985Y027705D01*
X048984Y0277D01*
X048982Y027696D01*
Y027696D01*
X048982Y027695D01*
X048981Y027695D01*
X048981Y027694D01*
X048979Y027692D01*
X048977Y02769D01*
X048975Y027687D01*
X048972Y027684D01*
X048968Y027682D01*
X048964Y02768D01*
X048964D01*
X048964Y02768D01*
X048963Y02768D01*
X048962Y027679D01*
X048961Y027679D01*
X04896Y027678D01*
X048958Y027678D01*
X048956Y027678D01*
X048954Y027677D01*
X048951Y027677D01*
X048949Y027676D01*
X048946Y027676D01*
X048943Y027675D01*
X04894Y027675D01*
X048936Y027675D01*
X04886D01*
Y027692D01*
X048935D01*
X048937Y027692D01*
X048938D01*
X048942Y027692D01*
X048946Y027693D01*
X04895Y027693D01*
X048954Y027694D01*
X048955Y027694D01*
X048957Y027695D01*
X048957Y027695D01*
X048958Y027695D01*
X048959Y027696D01*
X048961Y027697D01*
X048963Y027699D01*
X048965Y0277D01*
X048967Y027703D01*
X048969Y027705D01*
X048969Y027706D01*
X048969Y027706D01*
X04897Y027708D01*
X048971Y02771D01*
X048972Y027713D01*
X048972Y027716D01*
X048973Y02772D01*
X048973Y027723D01*
Y027725D01*
X048973Y027726D01*
Y027728D01*
X048973Y02773D01*
X048972Y027734D01*
X048971Y027738D01*
X048969Y027742D01*
X048967Y027746D01*
X048966Y027748D01*
X048965Y02775D01*
X048964Y02775D01*
X048964Y02775D01*
X048964Y02775D01*
X048963Y027751D01*
X048962Y027751D01*
X048961Y027752D01*
X048959Y027753D01*
X048958Y027754D01*
X048956Y027754D01*
X048953Y027755D01*
X04895Y027756D01*
X048948Y027756D01*
X048944Y027757D01*
X048941Y027757D01*
X048937Y027757D01*
X04886D01*
Y027774D01*
X048936D01*
X048937Y027774D01*
D02*
G37*
%LPC*%
G36*
X053155Y038387D02*
X053098D01*
X053155Y038347D01*
Y038387D01*
D02*
G37*
G36*
Y029332D02*
X053098D01*
X053155Y029292D01*
Y029332D01*
D02*
G37*
%LPD*%
D28*
X052491Y028617D02*
X051853D01*
X052491Y029963D02*
X051853D01*
X052491Y029605D02*
Y029963D01*
X051853Y029605D02*
Y029963D01*
Y028617D02*
Y028975D01*
X052491Y028617D02*
Y028975D01*
X053485Y027652D02*
X052847D01*
X053485Y028999D02*
X052847D01*
X053485Y02864D02*
Y028999D01*
X052847Y02864D02*
Y028999D01*
Y027652D02*
Y028011D01*
X053485Y027652D02*
Y028011D01*
X052491Y037672D02*
X051853D01*
X052491Y039018D02*
X051853D01*
X052491Y03866D02*
Y039018D01*
X051853Y03866D02*
Y039018D01*
Y037672D02*
Y03803D01*
X052491Y037672D02*
Y03803D01*
X053485Y036707D02*
X052847D01*
X053485Y038054D02*
X052847D01*
X053485Y037696D02*
Y038054D01*
X052847Y037696D02*
Y038054D01*
Y036707D02*
Y037066D01*
X053485Y036707D02*
Y037066D01*
D32*
X051363Y030717D02*
G03*
X051363Y030717I0J-00005D01*
G01*
X050708Y030041D02*
Y030217D01*
Y027477D02*
X049148D01*
Y028093D01*
X050708Y030217D02*
X049148D01*
X050708Y029136D02*
Y029463D01*
Y028231D02*
Y028558D01*
Y027477D02*
Y027653D01*
X049148Y029601D02*
Y030217D01*
X051363Y039772D02*
G03*
X051363Y039772I0J-00005D01*
G01*
X050708Y039096D02*
Y039272D01*
Y036532D02*
X049148D01*
Y037149D01*
X050708Y039272D02*
X049148D01*
X050708Y038191D02*
Y038519D01*
Y037286D02*
Y037614D01*
Y036532D02*
Y036709D01*
X049148Y038656D02*
Y039272D01*
M02*
