G04*
G04 #@! TF.GenerationSoftware,Altium Limited,Altium Designer,21.3.2 (30)*
G04*
G04 Layer_Color=8388736*
%FSTAX24Y24*%
%MOIN*%
G70*
G04*
G04 #@! TF.SameCoordinates,B3087990-D193-403A-B466-816C1580CACB*
G04*
G04*
G04 #@! TF.FilePolarity,Positive*
G04*
G01*
G75*
%ADD31C,0.0039*%
%ADD43C,0.0000*%
%ADD44C,0.0010*%
D31*
X052272Y02929D02*
X052072D01*
X052172Y02919D02*
Y02939D01*
X052329Y029605D02*
X052014D01*
X052329Y028975D02*
Y029605D01*
Y028975D02*
X052014D01*
Y029605D01*
X053266Y028325D02*
X053066D01*
X053166Y028225D02*
Y028425D01*
X053323Y02864D02*
X053008D01*
X053323Y02801D02*
Y02864D01*
Y02801D02*
X053008D01*
Y02864D01*
X052272Y038345D02*
X052072D01*
X052172Y038245D02*
Y038445D01*
X052329Y03866D02*
X052014D01*
X052329Y03803D02*
Y03866D01*
Y03803D02*
X052014D01*
Y03866D01*
X053266Y03738D02*
X053066D01*
X053166Y03728D02*
Y03748D01*
X053323Y037695D02*
X053008D01*
X053323Y037065D02*
Y037695D01*
Y037065D02*
X053008D01*
Y037695D01*
D43*
X050558Y030117D02*
G03*
X050558Y030117I0J-00005D01*
G01*
Y039172D02*
G03*
X050558Y039172I0J-00005D01*
G01*
D44*
X050658Y029587D02*
Y029917D01*
X051363D02*
X050658D01*
X051363Y029587D02*
Y029917D01*
Y029587D02*
X050658D01*
Y028682D02*
Y029012D01*
X051363D02*
X050658D01*
X051363Y028682D02*
Y029012D01*
Y028682D02*
X050658D01*
Y027777D02*
Y028107D01*
X051363D02*
X050658D01*
X051363Y027777D02*
Y028107D01*
Y027777D02*
X050658D01*
X049198Y028217D02*
Y029477D01*
Y028217D02*
X048493D01*
Y029477D01*
X049198D02*
X048493D01*
X050658Y027527D02*
Y030167D01*
Y027527D02*
X049198D01*
Y030167D01*
X050658D02*
X049198D01*
X050658Y038642D02*
Y038972D01*
X051363D02*
X050658D01*
X051363Y038642D02*
Y038972D01*
Y038642D02*
X050658D01*
Y037737D02*
Y038067D01*
X051363D02*
X050658D01*
X051363Y037737D02*
Y038067D01*
Y037737D02*
X050658D01*
Y036832D02*
Y037162D01*
X051363D02*
X050658D01*
X051363Y036832D02*
Y037162D01*
Y036832D02*
X050658D01*
X049198Y037272D02*
Y038532D01*
Y037272D02*
X048493D01*
Y038532D01*
X049198D02*
X048493D01*
X050658Y036582D02*
Y039222D01*
Y036582D02*
X049198D01*
Y039222D01*
X050658D02*
X049198D01*
M02*
