M48
;Layer_Color=9474304
;FILE_FORMAT=2:4
INCH,LZ
;TYPE=PLATED
T1F00S00C0.0236
T2F00S00C0.0280
T3F00S00C0.0551
;TYPE=NON_PLATED
T4F00S00C0.0240
%
T01
X039642Y030428
Y030928
Y031428
Y031928
Y039483
Y039983
Y040483
Y040983
T02
X055292Y025816
X039711Y028158
Y037213
X055292Y034871
X055174Y031623
Y040678
T03
X038343Y02716
Y02866
Y03016
Y036215
Y037715
Y039215
T04
X054407Y026989
X054637
X055903
X056133
Y03039
X055903
X054637
X054407
Y036044
X054637
X055903
X056133
Y039446
X055903
X054637
X054407
M30
