G04*
G04 #@! TF.GenerationSoftware,Altium Limited,Altium Designer,21.3.2 (30)*
G04*
G04 Layer_Physical_Order=2*
G04 Layer_Color=16711680*
%FSTAX24Y24*%
%MOIN*%
G70*
G04*
G04 #@! TF.SameCoordinates,B3087990-D193-403A-B466-816C1580CACB*
G04*
G04*
G04 #@! TF.FilePolarity,Positive*
G04*
G01*
G75*
%ADD18C,0.0100*%
%ADD19C,0.0354*%
%ADD20C,0.0945*%
%ADD21R,0.0945X0.0945*%
%ADD22C,0.0240*%
%ADD23C,0.0500*%
%ADD24C,0.0240*%
%ADD25R,0.0394X0.0433*%
%ADD26R,0.0730X0.0350*%
%ADD27R,0.0730X0.1280*%
D18*
X041266Y030786D02*
X040124Y031928D01*
X043008Y030786D02*
X041266D01*
X043008D02*
X043845Y031623D01*
X055174D02*
X043845D01*
X040124Y031928D02*
X039642D01*
X052172Y028955D02*
X048826D01*
X039711Y028158D02*
X039672Y028198D01*
Y028847D01*
X053166Y029752D02*
X051138D01*
X054927D02*
X053166D01*
Y02866D02*
Y029752D01*
X039672Y028847D02*
Y030398D01*
X048718Y028847D02*
X039672D01*
Y030398D02*
X039642Y030428D01*
X048718Y028847D02*
X048826Y028955D01*
X039642Y031928D02*
X03853D01*
X038343Y031741D02*
X03853Y031928D01*
X038343Y03016D02*
Y031741D01*
X055016Y027942D02*
X051138D01*
Y027219D02*
Y027942D01*
X051079Y02716D02*
X038343D01*
X051079D02*
X051138Y027219D01*
X055292Y025816D02*
Y027666D01*
X055016Y027942D01*
X054927Y029752D02*
X055174Y029999D01*
Y031623D01*
X041266Y039841D02*
X040124Y040983D01*
X043008Y039841D02*
X041266D01*
X043008D02*
X043845Y040678D01*
X055174D02*
X043845D01*
X040124Y040983D02*
X039642D01*
X052172Y038011D02*
X048826D01*
X039711Y037213D02*
X039672Y037253D01*
Y037902D01*
X053166Y038807D02*
X051138D01*
X054927D02*
X053166D01*
Y037715D02*
Y038807D01*
X039672Y037902D02*
Y039453D01*
X048718Y037902D02*
X039672D01*
Y039453D02*
X039642Y039483D01*
X048718Y037902D02*
X048826Y038011D01*
X039642Y040983D02*
X03853D01*
X038343Y040796D02*
X03853Y040983D01*
X038343Y039215D02*
Y040796D01*
X055016Y036997D02*
X051138D01*
Y036274D02*
Y036997D01*
X051079Y036215D02*
X038343D01*
X051079D02*
X051138Y036274D01*
X055292Y034871D02*
Y036721D01*
X055016Y036997D01*
X054927Y038807D02*
X055174Y039054D01*
Y040678D01*
D19*
X039642Y030428D02*
D03*
Y030928D02*
D03*
Y031428D02*
D03*
Y031928D02*
D03*
Y039483D02*
D03*
Y039983D02*
D03*
Y040483D02*
D03*
Y040983D02*
D03*
D20*
X038343Y03016D02*
D03*
Y02866D02*
D03*
Y039215D02*
D03*
Y037715D02*
D03*
D21*
Y02716D02*
D03*
Y036215D02*
D03*
D22*
X056133Y026989D02*
D03*
X055903Y03039D02*
D03*
X056133D02*
D03*
X054407Y026989D02*
D03*
X054637D02*
D03*
X054407Y03039D02*
D03*
X054637D02*
D03*
X055903Y026989D02*
D03*
X056133Y036044D02*
D03*
X055903Y039446D02*
D03*
X056133D02*
D03*
X054407Y036044D02*
D03*
X054637D02*
D03*
X054407Y039446D02*
D03*
X054637D02*
D03*
X055903Y036044D02*
D03*
D23*
X039711Y028158D02*
D03*
X055174Y031623D02*
D03*
X055292Y025816D02*
D03*
X039711Y037213D02*
D03*
X055174Y040678D02*
D03*
X055292Y034871D02*
D03*
D24*
X056133Y026989D02*
X055903D01*
X056133Y03039D02*
X055903D01*
X054637Y026989D02*
X054407D01*
X054637Y03039D02*
X054407D01*
X056133Y036044D02*
X055903D01*
X056133Y039446D02*
X055903D01*
X054637Y036044D02*
X054407D01*
X054637Y039446D02*
X054407D01*
D25*
X052172Y028955D02*
D03*
Y029625D02*
D03*
X053166Y027991D02*
D03*
Y02866D02*
D03*
X052172Y038011D02*
D03*
Y03868D02*
D03*
X053166Y037046D02*
D03*
Y037715D02*
D03*
D26*
X051138Y029752D02*
D03*
Y028847D02*
D03*
Y027942D02*
D03*
Y038807D02*
D03*
Y037902D02*
D03*
Y036997D02*
D03*
D27*
X048718Y028847D02*
D03*
Y037902D02*
D03*
M02*
