G04*
G04 #@! TF.GenerationSoftware,Altium Limited,Altium Designer,21.3.2 (30)*
G04*
G04 Layer_Color=2752767*
%FSTAX24Y24*%
%MOIN*%
G70*
G04*
G04 #@! TF.SameCoordinates,B3087990-D193-403A-B466-816C1580CACB*
G04*
G04*
G04 #@! TF.FilePolarity,Positive*
G04*
G01*
G75*
%ADD46C,0.0020*%
%ADD47C,0.0027*%
D46*
X039562Y030348D02*
Y030508D01*
X039722D01*
Y030348D01*
X039562D01*
Y030848D02*
Y031008D01*
X039722D01*
Y030848D01*
X039562D01*
Y031348D02*
Y031508D01*
X039722D01*
Y031348D01*
X039562D01*
Y031848D02*
Y032008D01*
X039722D01*
Y031848D01*
X039562D01*
X056133Y026909D02*
X056053Y027069D01*
X056213D01*
X056133Y026909D01*
X055903Y03031D02*
X055823Y03047D01*
X055983D01*
X055903Y03031D01*
X056133D02*
X056053Y03047D01*
X056213D01*
X056133Y03031D01*
X054407Y026909D02*
X054327Y027069D01*
X054487D01*
X054407Y026909D01*
X054637D02*
X054557Y027069D01*
X054717D01*
X054637Y026909D01*
X054407Y03031D02*
X054327Y03047D01*
X054487D01*
X054407Y03031D01*
X054637D02*
X054557Y03047D01*
X054717D01*
X054637Y03031D01*
X055903Y026909D02*
X055823Y027069D01*
X055983D01*
X055903Y026909D01*
X039711Y028078D02*
X039751Y028118D01*
X039791D01*
X039751Y028158D01*
X039791Y028198D01*
X039751D01*
X039711Y028238D01*
X039671Y028198D01*
X039631D01*
X039671Y028158D01*
X039631Y028118D01*
X039671D01*
X039711Y028078D01*
X055174Y031543D02*
X055214Y031583D01*
X055254D01*
X055214Y031623D01*
X055254Y031663D01*
X055214D01*
X055174Y031703D01*
X055134Y031663D01*
X055094D01*
X055134Y031623D01*
X055094Y031583D01*
X055134D01*
X055174Y031543D01*
X055292Y025736D02*
X055332Y025776D01*
X055372D01*
X055332Y025816D01*
X055372Y025856D01*
X055332D01*
X055292Y025896D01*
X055252Y025856D01*
X055212D01*
X055252Y025816D01*
X055212Y025776D01*
X055252D01*
X055292Y025736D01*
X039562Y039403D02*
Y039563D01*
X039722D01*
Y039403D01*
X039562D01*
Y039903D02*
Y040063D01*
X039722D01*
Y039903D01*
X039562D01*
Y040403D02*
Y040563D01*
X039722D01*
Y040403D01*
X039562D01*
Y040903D02*
Y041063D01*
X039722D01*
Y040903D01*
X039562D01*
X056133Y035964D02*
X056053Y036124D01*
X056213D01*
X056133Y035964D01*
X055903Y039366D02*
X055823Y039526D01*
X055983D01*
X055903Y039366D01*
X056133D02*
X056053Y039526D01*
X056213D01*
X056133Y039366D01*
X054407Y035964D02*
X054327Y036124D01*
X054487D01*
X054407Y035964D01*
X054637D02*
X054557Y036124D01*
X054717D01*
X054637Y035964D01*
X054407Y039366D02*
X054327Y039526D01*
X054487D01*
X054407Y039366D01*
X054637D02*
X054557Y039526D01*
X054717D01*
X054637Y039366D01*
X055903Y035964D02*
X055823Y036124D01*
X055983D01*
X055903Y035964D01*
X039711Y037133D02*
X039751Y037173D01*
X039791D01*
X039751Y037213D01*
X039791Y037253D01*
X039751D01*
X039711Y037293D01*
X039671Y037253D01*
X039631D01*
X039671Y037213D01*
X039631Y037173D01*
X039671D01*
X039711Y037133D01*
X055174Y040598D02*
X055214Y040638D01*
X055254D01*
X055214Y040678D01*
X055254Y040718D01*
X055214D01*
X055174Y040758D01*
X055134Y040718D01*
X055094D01*
X055134Y040678D01*
X055094Y040638D01*
X055134D01*
X055174Y040598D01*
X055292Y034791D02*
X055332Y034831D01*
X055372D01*
X055332Y034871D01*
X055372Y034911D01*
X055332D01*
X055292Y034951D01*
X055252Y034911D01*
X055212D01*
X055252Y034871D01*
X055212Y034831D01*
X055252D01*
X055292Y034791D01*
D47*
X038423Y03016D02*
G03*
X038423Y03016I-00008J0D01*
G01*
Y02716D02*
G03*
X038423Y02716I-00008J0D01*
G01*
Y02866D02*
G03*
X038423Y02866I-00008J0D01*
G01*
Y039215D02*
G03*
X038423Y039215I-00008J0D01*
G01*
Y036215D02*
G03*
X038423Y036215I-00008J0D01*
G01*
Y037715D02*
G03*
X038423Y037715I-00008J0D01*
G01*
M02*
