G04*
G04 #@! TF.GenerationSoftware,Altium Limited,Altium Designer,21.3.2 (30)*
G04*
G04 Layer_Color=8388736*
%FSTAX24Y24*%
%MOIN*%
G70*
G04*
G04 #@! TF.SameCoordinates,B3087990-D193-403A-B466-816C1580CACB*
G04*
G04*
G04 #@! TF.FilePolarity,Negative*
G04*
G01*
G75*
%ADD13R,0.0470X0.0280*%
%ADD14R,0.0470X0.0300*%
%ADD15R,0.0470X0.0320*%
%ADD17R,0.0120X0.0460*%
%ADD33R,0.0512X0.0472*%
%ADD34R,0.0789X0.0513*%
%ADD35R,0.0513X0.1104*%
%ADD36C,0.0434*%
%ADD37C,0.1025*%
%ADD38R,0.1025X0.1025*%
%ADD39C,0.0580*%
D13*
X054491Y028493D02*
D03*
Y028887D02*
D03*
Y037548D02*
D03*
Y037942D02*
D03*
D14*
Y029288D02*
D03*
X054491Y028091D02*
D03*
X054491Y038343D02*
D03*
X054491Y037146D02*
D03*
D15*
X054491Y029772D02*
D03*
X054491Y027607D02*
D03*
X054491Y038827D02*
D03*
X054491Y036662D02*
D03*
D17*
X041906Y027471D02*
D03*
X04165D02*
D03*
X041394D02*
D03*
X041138D02*
D03*
X040882D02*
D03*
X040626D02*
D03*
X04037D02*
D03*
X04037Y029731D02*
D03*
X040626D02*
D03*
X040882D02*
D03*
X041138D02*
D03*
X041394D02*
D03*
X04165D02*
D03*
X041906D02*
D03*
X041906Y036526D02*
D03*
X04165D02*
D03*
X041394D02*
D03*
X041138D02*
D03*
X040882D02*
D03*
X040626D02*
D03*
X04037D02*
D03*
X04037Y038786D02*
D03*
X040626D02*
D03*
X040882D02*
D03*
X041138D02*
D03*
X041394D02*
D03*
X04165D02*
D03*
X041906D02*
D03*
D33*
X042752Y028729D02*
D03*
X043422D02*
D03*
X042743Y029605D02*
D03*
X043412D02*
D03*
X042772Y027804D02*
D03*
X043441D02*
D03*
X042792Y026731D02*
D03*
X043461D02*
D03*
X042782Y025766D02*
D03*
X043451D02*
D03*
X042752Y037784D02*
D03*
X043422D02*
D03*
X042743Y03866D02*
D03*
X043412D02*
D03*
X042772Y036859D02*
D03*
X043441D02*
D03*
X042792Y035786D02*
D03*
X043461D02*
D03*
X042782Y034822D02*
D03*
X043451D02*
D03*
D34*
X0535Y030668D02*
D03*
X0535Y029881D02*
D03*
Y029093D02*
D03*
X0535Y028306D02*
D03*
X0535Y027518D02*
D03*
Y026731D02*
D03*
X0535Y039723D02*
D03*
X0535Y038936D02*
D03*
Y038148D02*
D03*
X0535Y037361D02*
D03*
X0535Y036574D02*
D03*
Y035786D02*
D03*
D35*
X047398Y031692D02*
D03*
X048185D02*
D03*
X048973D02*
D03*
X04976D02*
D03*
X050548D02*
D03*
X051335D02*
D03*
X052122D02*
D03*
X05291D02*
D03*
X05291Y025707D02*
D03*
X052122Y025707D02*
D03*
X051335D02*
D03*
X050548D02*
D03*
X04976D02*
D03*
X048973D02*
D03*
X048185D02*
D03*
X047398D02*
D03*
X047398Y040747D02*
D03*
X048185D02*
D03*
X048973D02*
D03*
X04976D02*
D03*
X050548D02*
D03*
X051335D02*
D03*
X052122D02*
D03*
X05291D02*
D03*
X05291Y034763D02*
D03*
X052122Y034763D02*
D03*
X051335D02*
D03*
X050548D02*
D03*
X04976D02*
D03*
X048973D02*
D03*
X048185D02*
D03*
X047398D02*
D03*
D36*
X039642Y030428D02*
D03*
Y030928D02*
D03*
Y031428D02*
D03*
Y031928D02*
D03*
Y039483D02*
D03*
Y039983D02*
D03*
Y040483D02*
D03*
Y040983D02*
D03*
D37*
X038343Y03016D02*
D03*
Y02866D02*
D03*
Y039215D02*
D03*
Y037715D02*
D03*
D38*
Y02716D02*
D03*
Y036215D02*
D03*
D39*
X039711Y028158D02*
D03*
X055174Y031623D02*
D03*
X055292Y025816D02*
D03*
X039711Y037213D02*
D03*
X055174Y040678D02*
D03*
X055292Y034871D02*
D03*
M02*
