G04*
G04 #@! TF.GenerationSoftware,Altium Limited,Altium Designer,21.3.2 (30)*
G04*
G04 Layer_Color=16711935*
%FSTAX24Y24*%
%MOIN*%
G70*
G04*
G04 #@! TF.SameCoordinates,B3087990-D193-403A-B466-816C1580CACB*
G04*
G04*
G04 #@! TF.FilePolarity,Positive*
G04*
G01*
G75*
%ADD30C,0.0098*%
%ADD31C,0.0039*%
%ADD43C,0.0000*%
%ADD44C,0.0010*%
%ADD45C,0.0030*%
D30*
X038816Y031184D02*
X035194D01*
X038816Y026137D02*
X035194D01*
X038816D02*
Y031184D01*
X035194Y026137D02*
Y031184D01*
X038343Y0268D02*
Y02752D01*
X038703Y02716D02*
X037983D01*
X038816Y040239D02*
X035194D01*
X038816Y035192D02*
X035194D01*
X038816D02*
Y040239D01*
X035194Y035192D02*
Y040239D01*
X038343Y035855D02*
Y036575D01*
X038703Y036215D02*
X037983D01*
D31*
X043087Y028629D02*
Y028829D01*
X043187Y028729D02*
X042987D01*
X043402Y028572D02*
Y028887D01*
X042772D01*
Y028572D02*
Y028887D01*
X043402Y028572D02*
X042772D01*
X043077Y029505D02*
Y029705D01*
X043177Y029605D02*
X042977D01*
X043392Y029448D02*
Y029763D01*
X042762D01*
Y029448D02*
Y029763D01*
X043392Y029448D02*
X042762D01*
X043106Y027704D02*
Y027904D01*
X043206Y027804D02*
X043006D01*
X043421Y027646D02*
Y027961D01*
X042791D01*
Y027646D02*
Y027961D01*
X043421Y027646D02*
X042791D01*
X043126Y026631D02*
Y026831D01*
X043226Y026731D02*
X043026D01*
X043441Y026574D02*
Y026888D01*
X042811D01*
Y026574D02*
Y026888D01*
X043441Y026574D02*
X042811D01*
X043116Y025666D02*
Y025866D01*
X043216Y025766D02*
X043016D01*
X043431Y025609D02*
Y025924D01*
X042801D01*
Y025609D02*
Y025924D01*
X043431Y025609D02*
X042801D01*
X043087Y037684D02*
Y037884D01*
X043187Y037784D02*
X042987D01*
X043402Y037627D02*
Y037942D01*
X042772D01*
Y037627D02*
Y037942D01*
X043402Y037627D02*
X042772D01*
X043077Y03856D02*
Y03876D01*
X043177Y03866D02*
X042977D01*
X043392Y038503D02*
Y038818D01*
X042762D01*
Y038503D02*
Y038818D01*
X043392Y038503D02*
X042762D01*
X043106Y036759D02*
Y036959D01*
X043206Y036859D02*
X043006D01*
X043421Y036701D02*
Y037016D01*
X042791D01*
Y036701D02*
Y037016D01*
X043421Y036701D02*
X042791D01*
X043126Y035686D02*
Y035886D01*
X043226Y035786D02*
X043026D01*
X043441Y035629D02*
Y035944D01*
X042811D01*
Y035629D02*
Y035944D01*
X043441Y035629D02*
X042811D01*
X043116Y034722D02*
Y034922D01*
X043216Y034822D02*
X043016D01*
X043431Y034664D02*
Y034979D01*
X042801D01*
Y034664D02*
Y034979D01*
X043431Y034664D02*
X042801D01*
D43*
X042143Y028721D02*
G03*
X042143Y028481I0J-00012D01*
G01*
Y037776D02*
G03*
X042143Y037536I0J-00012D01*
G01*
D44*
X057045Y02693D02*
Y03045D01*
X054325D01*
Y02693D02*
Y03045D01*
X057045Y02693D02*
X054325D01*
X042143Y029486D02*
X040133D01*
X042143Y027716D02*
Y029486D01*
Y027716D02*
X040133D01*
Y029486D01*
X041966Y027301D02*
Y027716D01*
Y027301D02*
X041846D01*
Y027716D01*
X041966D02*
X041846D01*
X04171Y027301D02*
Y027716D01*
Y027301D02*
X04159D01*
Y027716D01*
X04171D02*
X04159D01*
X041454Y027301D02*
Y027716D01*
Y027301D02*
X041334D01*
Y027716D01*
X041454D02*
X041334D01*
X041198Y027301D02*
Y027716D01*
Y027301D02*
X041078D01*
Y027716D01*
X041198D02*
X041078D01*
X040942Y027301D02*
Y027716D01*
Y027301D02*
X040822D01*
Y027716D01*
X040942D02*
X040822D01*
X040686Y027301D02*
Y027716D01*
Y027301D02*
X040566D01*
Y027716D01*
X040686D02*
X040566D01*
X04043Y027301D02*
Y027716D01*
Y027301D02*
X04031D01*
Y027716D01*
X04043D02*
X04031D01*
X04031Y029486D02*
Y029901D01*
X04043D02*
X04031D01*
X04043Y029486D02*
Y029901D01*
Y029486D02*
X04031D01*
X040566D02*
Y029901D01*
X040686D02*
X040566D01*
X040686Y029486D02*
Y029901D01*
Y029486D02*
X040566D01*
X040822D02*
Y029901D01*
X040942D02*
X040822D01*
X040942Y029486D02*
Y029901D01*
Y029486D02*
X040822D01*
X041078D02*
Y029901D01*
X041198D02*
X041078D01*
X041198Y029486D02*
Y029901D01*
Y029486D02*
X041078D01*
X041334D02*
Y029901D01*
X041454D02*
X041334D01*
X041454Y029486D02*
Y029901D01*
Y029486D02*
X041334D01*
X04159D02*
Y029901D01*
X04171D02*
X04159D01*
X04171Y029486D02*
Y029901D01*
Y029486D02*
X04159D01*
X041846D02*
Y029901D01*
X041966D02*
X041846D01*
X041966Y029486D02*
Y029901D01*
Y029486D02*
X041846D01*
X057045Y035985D02*
Y039505D01*
X054325D01*
Y035985D02*
Y039505D01*
X057045Y035985D02*
X054325D01*
X042143Y038541D02*
X040133D01*
X042143Y036771D02*
Y038541D01*
Y036771D02*
X040133D01*
Y038541D01*
X041966Y036356D02*
Y036771D01*
Y036356D02*
X041846D01*
Y036771D01*
X041966D02*
X041846D01*
X04171Y036356D02*
Y036771D01*
Y036356D02*
X04159D01*
Y036771D01*
X04171D02*
X04159D01*
X041454Y036356D02*
Y036771D01*
Y036356D02*
X041334D01*
Y036771D01*
X041454D02*
X041334D01*
X041198Y036356D02*
Y036771D01*
Y036356D02*
X041078D01*
Y036771D01*
X041198D02*
X041078D01*
X040942Y036356D02*
Y036771D01*
Y036356D02*
X040822D01*
Y036771D01*
X040942D02*
X040822D01*
X040686Y036356D02*
Y036771D01*
Y036356D02*
X040566D01*
Y036771D01*
X040686D02*
X040566D01*
X04043Y036356D02*
Y036771D01*
Y036356D02*
X04031D01*
Y036771D01*
X04043D02*
X04031D01*
X04031Y038541D02*
Y038956D01*
X04043D02*
X04031D01*
X04043Y038541D02*
Y038956D01*
Y038541D02*
X04031D01*
X040566D02*
Y038956D01*
X040686D02*
X040566D01*
X040686Y038541D02*
Y038956D01*
Y038541D02*
X040566D01*
X040822D02*
Y038956D01*
X040942D02*
X040822D01*
X040942Y038541D02*
Y038956D01*
Y038541D02*
X040822D01*
X041078D02*
Y038956D01*
X041198D02*
X041078D01*
X041198Y038541D02*
Y038956D01*
Y038541D02*
X041078D01*
X041334D02*
Y038956D01*
X041454D02*
X041334D01*
X041454Y038541D02*
Y038956D01*
Y038541D02*
X041334D01*
X04159D02*
Y038956D01*
X04171D02*
X04159D01*
X04171Y038541D02*
Y038956D01*
Y038541D02*
X04159D01*
X041846D02*
Y038956D01*
X041966D02*
X041846D01*
X041966Y038541D02*
Y038956D01*
Y038541D02*
X041846D01*
D45*
X054619Y028365D02*
X054952Y028698D01*
Y028365D02*
X054619Y028698D01*
X054786Y028365D02*
Y028698D01*
X054952Y028531D02*
X054619D01*
X04203Y029461D02*
X041697Y029128D01*
Y029461D02*
X04203Y029128D01*
X041863Y029461D02*
Y029128D01*
X041697Y029295D02*
X04203D01*
X054619Y03742D02*
X054952Y037753D01*
Y03742D02*
X054619Y037753D01*
X054786Y03742D02*
Y037753D01*
X054952Y037586D02*
X054619D01*
X04203Y038516D02*
X041697Y038183D01*
Y038516D02*
X04203Y038183D01*
X041863Y038516D02*
Y038183D01*
X041697Y03835D02*
X04203D01*
M02*
