G04*
G04 #@! TF.GenerationSoftware,Altium Limited,Altium Designer,21.3.2 (30)*
G04*
G04 Layer_Color=255*
%FSTAX24Y24*%
%MOIN*%
G70*
G04*
G04 #@! TF.SameCoordinates,B3087990-D193-403A-B466-816C1580CACB*
G04*
G04*
G04 #@! TF.FilePolarity,Positive*
G04*
G01*
G75*
%ADD19C,0.0354*%
%ADD20C,0.0945*%
%ADD21R,0.0945X0.0945*%
%ADD22C,0.0240*%
%ADD25R,0.0394X0.0433*%
%ADD26R,0.0730X0.0350*%
%ADD27R,0.0730X0.1280*%
D19*
X039642Y030428D02*
D03*
Y030928D02*
D03*
Y031428D02*
D03*
Y031928D02*
D03*
Y039483D02*
D03*
Y039983D02*
D03*
Y040483D02*
D03*
Y040983D02*
D03*
D20*
X038343Y03016D02*
D03*
Y02866D02*
D03*
Y039215D02*
D03*
Y037715D02*
D03*
D21*
Y02716D02*
D03*
Y036215D02*
D03*
D22*
X056133Y026989D02*
D03*
X055903Y03039D02*
D03*
X056133D02*
D03*
X054407Y026989D02*
D03*
X054637D02*
D03*
X054407Y03039D02*
D03*
X054637D02*
D03*
X055903Y026989D02*
D03*
X056133Y036044D02*
D03*
X055903Y039446D02*
D03*
X056133D02*
D03*
X054407Y036044D02*
D03*
X054637D02*
D03*
X054407Y039446D02*
D03*
X054637D02*
D03*
X055903Y036044D02*
D03*
D25*
X052172Y028955D02*
D03*
Y029625D02*
D03*
X053166Y027991D02*
D03*
Y02866D02*
D03*
X052172Y038011D02*
D03*
Y03868D02*
D03*
X053166Y037046D02*
D03*
Y037715D02*
D03*
D26*
X051138Y029752D02*
D03*
Y028847D02*
D03*
Y027942D02*
D03*
Y038807D02*
D03*
Y037902D02*
D03*
Y036997D02*
D03*
D27*
X048718Y028847D02*
D03*
Y037902D02*
D03*
M02*
