G04*
G04 #@! TF.GenerationSoftware,Altium Limited,Altium Designer,21.3.2 (30)*
G04*
G04 Layer_Color=16711935*
%FSTAX24Y24*%
%MOIN*%
G70*
G04*
G04 #@! TF.SameCoordinates,B3087990-D193-403A-B466-816C1580CACB*
G04*
G04*
G04 #@! TF.FilePolarity,Negative*
G04*
G01*
G75*
%ADD26R,0.0730X0.0350*%
%ADD27R,0.0730X0.1280*%
%ADD36C,0.0434*%
%ADD37C,0.1025*%
%ADD38R,0.1025X0.1025*%
%ADD39C,0.0580*%
%ADD40C,0.0005*%
%ADD41R,0.0472X0.0512*%
D26*
X051138Y029752D02*
D03*
Y028847D02*
D03*
Y027942D02*
D03*
Y038807D02*
D03*
Y037902D02*
D03*
Y036997D02*
D03*
D27*
X048718Y028847D02*
D03*
Y037902D02*
D03*
D36*
X039642Y030428D02*
D03*
Y030928D02*
D03*
Y031428D02*
D03*
Y031928D02*
D03*
Y039483D02*
D03*
Y039983D02*
D03*
Y040483D02*
D03*
Y040983D02*
D03*
D37*
X038343Y03016D02*
D03*
Y02866D02*
D03*
Y039215D02*
D03*
Y037715D02*
D03*
D38*
Y02716D02*
D03*
Y036215D02*
D03*
D39*
X039711Y028158D02*
D03*
X055174Y031623D02*
D03*
X055292Y025816D02*
D03*
X039711Y037213D02*
D03*
X055174Y040678D02*
D03*
X055292Y034871D02*
D03*
D40*
X0367Y02425D02*
X03675Y04195D01*
X0367Y02425D02*
X05705D01*
X057Y04205D02*
X05705Y02425D01*
X03675Y04195D02*
X057Y04205D01*
D41*
X052172Y028955D02*
D03*
Y029625D02*
D03*
X053166Y027991D02*
D03*
Y02866D02*
D03*
X052172Y038011D02*
D03*
Y03868D02*
D03*
X053166Y037046D02*
D03*
Y037715D02*
D03*
M02*
