G04*
G04 #@! TF.GenerationSoftware,Altium Limited,Altium Designer,21.3.2 (30)*
G04*
G04 Layer_Physical_Order=1*
G04 Layer_Color=255*
%FSTAX24Y24*%
%MOIN*%
G70*
G04*
G04 #@! TF.SameCoordinates,B3087990-D193-403A-B466-816C1580CACB*
G04*
G04*
G04 #@! TF.FilePolarity,Positive*
G04*
G01*
G75*
%ADD10R,0.0433X0.0394*%
%ADD11R,0.0709X0.0433*%
%ADD12R,0.0433X0.1024*%
%ADD13R,0.0470X0.0280*%
%ADD14R,0.0470X0.0300*%
%ADD15R,0.0470X0.0320*%
%ADD16O,0.0670X0.0430*%
%ADD17R,0.0120X0.0460*%
%ADD18C,0.0100*%
%ADD19C,0.0354*%
%ADD20C,0.0945*%
%ADD21R,0.0945X0.0945*%
%ADD22C,0.0240*%
%ADD23C,0.0500*%
%ADD24C,0.0240*%
D10*
X042752Y028729D02*
D03*
X043422D02*
D03*
X042743Y029605D02*
D03*
X043412D02*
D03*
X042772Y027804D02*
D03*
X043441D02*
D03*
X042792Y026731D02*
D03*
X043461D02*
D03*
X042782Y025766D02*
D03*
X043451D02*
D03*
X042752Y037784D02*
D03*
X043422D02*
D03*
X042743Y03866D02*
D03*
X043412D02*
D03*
X042772Y036859D02*
D03*
X043441D02*
D03*
X042792Y035786D02*
D03*
X043461D02*
D03*
X042782Y034822D02*
D03*
X043451D02*
D03*
D11*
X0535Y030668D02*
D03*
X0535Y029881D02*
D03*
Y029093D02*
D03*
X0535Y028306D02*
D03*
X0535Y027518D02*
D03*
Y026731D02*
D03*
X0535Y039723D02*
D03*
X0535Y038936D02*
D03*
Y038148D02*
D03*
X0535Y037361D02*
D03*
X0535Y036574D02*
D03*
Y035786D02*
D03*
D12*
X047398Y031692D02*
D03*
X048185D02*
D03*
X048973D02*
D03*
X04976D02*
D03*
X050548D02*
D03*
X051335D02*
D03*
X052122D02*
D03*
X05291D02*
D03*
X05291Y025707D02*
D03*
X052122Y025707D02*
D03*
X051335D02*
D03*
X050548D02*
D03*
X04976D02*
D03*
X048973D02*
D03*
X048185D02*
D03*
X047398D02*
D03*
X047398Y040747D02*
D03*
X048185D02*
D03*
X048973D02*
D03*
X04976D02*
D03*
X050548D02*
D03*
X051335D02*
D03*
X052122D02*
D03*
X05291D02*
D03*
X05291Y034763D02*
D03*
X052122Y034763D02*
D03*
X051335D02*
D03*
X050548D02*
D03*
X04976D02*
D03*
X048973D02*
D03*
X048185D02*
D03*
X047398D02*
D03*
D13*
X054491Y028493D02*
D03*
Y028887D02*
D03*
Y037548D02*
D03*
Y037942D02*
D03*
D14*
Y029288D02*
D03*
X054491Y028091D02*
D03*
X054491Y038343D02*
D03*
X054491Y037146D02*
D03*
D15*
X054491Y029772D02*
D03*
X054491Y027607D02*
D03*
X054491Y038827D02*
D03*
X054491Y036662D02*
D03*
D16*
X054522Y026989D02*
D03*
Y03039D02*
D03*
X056018Y026989D02*
D03*
Y03039D02*
D03*
X054522Y036044D02*
D03*
Y039446D02*
D03*
X056018Y036044D02*
D03*
Y039446D02*
D03*
D17*
X041906Y027471D02*
D03*
X04165D02*
D03*
X041394D02*
D03*
X041138D02*
D03*
X040882D02*
D03*
X040626D02*
D03*
X04037D02*
D03*
X04037Y029731D02*
D03*
X040626D02*
D03*
X040882D02*
D03*
X041138D02*
D03*
X041394D02*
D03*
X04165D02*
D03*
X041906D02*
D03*
X041906Y036526D02*
D03*
X04165D02*
D03*
X041394D02*
D03*
X041138D02*
D03*
X040882D02*
D03*
X040626D02*
D03*
X04037D02*
D03*
X04037Y038786D02*
D03*
X040626D02*
D03*
X040882D02*
D03*
X041138D02*
D03*
X041394D02*
D03*
X04165D02*
D03*
X041906D02*
D03*
D18*
X042782Y028148D02*
Y0287D01*
Y027233D02*
Y028148D01*
X042772Y028158D02*
X039711D01*
X042782Y028148D02*
X042772Y028158D01*
X052792Y031574D02*
X05291Y031692D01*
X052664Y028729D02*
X052792Y028857D01*
X043412Y027833D02*
Y029152D01*
X052792Y028857D02*
Y031574D01*
X052664Y028729D02*
X043422D01*
X042782Y025766D02*
Y027233D01*
X05291Y025707D02*
X052772Y025845D01*
Y027174D01*
X052713Y027233D02*
X042782D01*
X052772Y027174D02*
X052713Y027233D01*
X043412Y029152D02*
Y029605D01*
X042004Y029152D02*
X041906Y029251D01*
X043412Y029152D02*
X042004D01*
X041906Y029251D02*
Y029731D01*
X043441Y027804D02*
X043412Y027833D01*
X041138Y029731D02*
Y030117D01*
X040961Y030294D02*
X040449D01*
X041138Y030117D02*
X040961Y030294D01*
X041906Y027134D02*
Y027471D01*
X038428Y027076D02*
X038343Y02716D01*
X041847Y027076D02*
X038428D01*
X041847D02*
X041906Y027134D01*
X051217Y030333D02*
X041798D01*
X04165Y030186D02*
X041798Y030333D01*
X04165Y029731D02*
Y030186D01*
X04037Y029731D02*
Y030215D01*
X040449Y030294D01*
X051217Y030333D02*
X051335Y030452D01*
Y031692D01*
X048028Y03055D02*
X048185Y030707D01*
X048028Y03055D02*
X04042D01*
X040843Y030806D02*
X040221Y031428D01*
X047142Y030806D02*
X040843D01*
X048185Y030707D02*
Y031692D01*
X047142Y030806D02*
X047398Y031062D01*
X04042Y03055D02*
X040042Y030928D01*
X051689Y029999D02*
X042801D01*
X051689D02*
X052122Y030432D01*
X042743Y029703D02*
Y02994D01*
X042801Y029999D01*
X040363Y029723D02*
X03878D01*
X040363D02*
X04037Y029731D01*
X03878Y029723D02*
X038343Y03016D01*
X038343D01*
X042782Y0287D02*
X042752Y028729D01*
X048973Y026652D02*
X048894Y026731D01*
X048973Y025707D02*
Y026652D01*
X048894Y026731D02*
X043461D01*
X047398Y025707D02*
X047339Y025766D01*
X043451D01*
X052122Y030432D02*
Y031692D01*
X047398Y031062D02*
Y031692D01*
X040042Y030928D02*
X039642D01*
X041394Y028719D02*
Y029731D01*
X041335Y02866D02*
X041394Y028719D01*
X041335Y02866D02*
X038343D01*
X040221Y031428D02*
X039642D01*
X054481Y027597D02*
X054189D01*
X054481D02*
X054491Y027607D01*
X054189Y027597D02*
X054091Y027696D01*
Y029714D01*
X05415Y029772D01*
X054491D02*
X05415D01*
X055272Y029054D02*
Y029152D01*
Y028079D02*
Y029054D01*
X055292Y029034D02*
X055272Y029054D01*
X055292Y025816D02*
Y029034D01*
X055174Y031623D02*
X052979D01*
X05291Y031692D01*
X055213Y031583D02*
X055174Y031623D01*
X055154Y029772D02*
X055213Y029831D01*
X055154Y029772D02*
X054491D01*
X055213Y029831D02*
Y031583D01*
X05526Y028091D02*
X054491D01*
X055272Y028079D02*
X05526Y028091D01*
X055272Y029152D02*
X055136Y029288D01*
X054491D01*
X042782Y037203D02*
Y037755D01*
Y036288D02*
Y037203D01*
X042772Y037213D02*
X039711D01*
X042782Y037203D02*
X042772Y037213D01*
X052792Y040629D02*
X05291Y040747D01*
X052664Y037784D02*
X052792Y037912D01*
X043412Y036889D02*
Y038207D01*
X052792Y037912D02*
Y040629D01*
X052664Y037784D02*
X043422D01*
X042782Y034822D02*
Y036288D01*
X05291Y034763D02*
X052772Y0349D01*
Y03623D01*
X052713Y036288D02*
X042782D01*
X052772Y03623D02*
X052713Y036288D01*
X043412Y038207D02*
Y03866D01*
X042004Y038207D02*
X041906Y038306D01*
X043412Y038207D02*
X042004D01*
X041906Y038306D02*
Y038786D01*
X043441Y036859D02*
X043412Y036889D01*
X041138Y038786D02*
Y039172D01*
X040961Y039349D02*
X040449D01*
X041138Y039172D02*
X040961Y039349D01*
X041906Y036189D02*
Y036526D01*
X038428Y036131D02*
X038343Y036215D01*
X041847Y036131D02*
X038428D01*
X041847D02*
X041906Y036189D01*
X051217Y039389D02*
X041798D01*
X04165Y039241D02*
X041798Y039389D01*
X04165Y038786D02*
Y039241D01*
X04037Y038786D02*
Y03927D01*
X040449Y039349D01*
X051217Y039389D02*
X051335Y039507D01*
Y040747D01*
X048028Y039605D02*
X048185Y039763D01*
X048028Y039605D02*
X04042D01*
X040843Y039861D02*
X040221Y040483D01*
X047142Y039861D02*
X040843D01*
X048185Y039763D02*
Y040747D01*
X047142Y039861D02*
X047398Y040117D01*
X04042Y039605D02*
X040042Y039983D01*
X051689Y039054D02*
X042801D01*
X051689D02*
X052122Y039487D01*
X042743Y038759D02*
Y038995D01*
X042801Y039054D01*
X040363Y038778D02*
X03878D01*
X040363D02*
X04037Y038786D01*
X03878Y038778D02*
X038343Y039215D01*
X038343D01*
X042782Y037755D02*
X042752Y037784D01*
X048973Y035707D02*
X048894Y035786D01*
X048973Y034763D02*
Y035707D01*
X048894Y035786D02*
X043461D01*
X047398Y034763D02*
X047339Y034822D01*
X043451D01*
X052122Y039487D02*
Y040747D01*
X047398Y040117D02*
Y040747D01*
X040042Y039983D02*
X039642D01*
X041394Y037774D02*
Y038786D01*
X041335Y037715D02*
X041394Y037774D01*
X041335Y037715D02*
X038343D01*
X040221Y040483D02*
X039642D01*
X054481Y036652D02*
X054189D01*
X054481D02*
X054491Y036662D01*
X054189Y036652D02*
X054091Y036751D01*
Y038769D01*
X05415Y038827D01*
X054491D02*
X05415D01*
X055272Y038109D02*
Y038207D01*
Y037135D02*
Y038109D01*
X055292Y038089D02*
X055272Y038109D01*
X055292Y034871D02*
Y038089D01*
X055174Y040678D02*
X052979D01*
X05291Y040747D01*
X055213Y040639D02*
X055174Y040678D01*
X055154Y038827D02*
X055213Y038886D01*
X055154Y038827D02*
X054491D01*
X055213Y038886D02*
Y040639D01*
X05526Y037146D02*
X054491D01*
X055272Y037135D02*
X05526Y037146D01*
X055272Y038207D02*
X055136Y038343D01*
X054491D01*
D19*
X039642Y030428D02*
D03*
Y030928D02*
D03*
Y031428D02*
D03*
Y031928D02*
D03*
Y039483D02*
D03*
Y039983D02*
D03*
Y040483D02*
D03*
Y040983D02*
D03*
D20*
X038343Y03016D02*
D03*
Y02866D02*
D03*
Y039215D02*
D03*
Y037715D02*
D03*
D21*
Y02716D02*
D03*
Y036215D02*
D03*
D22*
X056133Y026989D02*
D03*
X055903Y03039D02*
D03*
X056133D02*
D03*
X054407Y026989D02*
D03*
X054637D02*
D03*
X054407Y03039D02*
D03*
X054637D02*
D03*
X055903Y026989D02*
D03*
X056133Y036044D02*
D03*
X055903Y039446D02*
D03*
X056133D02*
D03*
X054407Y036044D02*
D03*
X054637D02*
D03*
X054407Y039446D02*
D03*
X054637D02*
D03*
X055903Y036044D02*
D03*
D23*
X039711Y028158D02*
D03*
X055174Y031623D02*
D03*
X055292Y025816D02*
D03*
X039711Y037213D02*
D03*
X055174Y040678D02*
D03*
X055292Y034871D02*
D03*
D24*
X056133Y026989D02*
X055903D01*
X056133Y03039D02*
X055903D01*
X054637Y026989D02*
X054407D01*
X054637Y03039D02*
X054407D01*
X056133Y036044D02*
X055903D01*
X056133Y039446D02*
X055903D01*
X054637Y036044D02*
X054407D01*
X054637Y039446D02*
X054407D01*
M02*
